<?xml version="1.0" encoding="UTF-8"?>
<svg id="Layer_1" xmlns="http://www.w3.org/2000/svg" version="1.1" viewBox="0 0 1080 1080">
  <!-- Generator: Adobe Illustrator 29.5.1, SVG Export Plug-In . SVG Version: 2.1.0 Build 141)  -->
  <defs>
    <style>
      .st0 {
        fill: #282828;
      }

      .st1 {
        fill: #d5b174;
      }
    </style>
  </defs>
  <circle class="st0" cx="540" cy="540" r="538.67"/>
  <path class="st1" d="M838.35,577.26c-2.63,3.16-7.98,17.95-11.41,23.08-19.41,29.04-65.98,43.54-99.02,34.37-18.64-5.17-37.56-24.33-56.32-24.74-19.03-.42-30.24,25.64-40.46,38.5-8.81,11.09-20.11,19.8-28.89,30.89,20.24,20.59,42.94,41.99,67.18,57.86,5.25,3.44,21.66,10.57,23.28,15.73,1.99,6.3-6.93,16.4-11.05,21.06-20.22,22.88-46.11,34.72-76.11,38.86-3.8.52-7.6-.4-11.4.6-5.39,1.41-16.17,11.56-23.28,14.71-23.29,10.32-49.35,7.93-70.95-5.38-2.88-1.78-9.49-8.04-11.41-8.59-3.89-1.11-13.64-.6-18.66-1.33-27.18-3.96-57.05-20.23-74.62-41.36-4.09-4.92-8.82-10.93-6.77-17.82,1.54-5.15,29.99-22.41,36.09-26.89,15.95-11.69,30.86-25.18,45.19-38.79,1.44-1.37,8.63-8.07,8.4-9.39-6.66-7.64-14.67-14.11-21.43-21.62-11.64-12.93-24.73-35.27-37.98-45.01-12.72-9.35-28.78,5.65-40.46,11.52-45.38,22.79-92.38,19.9-123.79-23.2-4.15-5.7-8.57-16.81-12.17-20.83-4.02-4.5-16.25-10.78-22.02-15.97-15.86-14.28-25.69-32.8-30.51-53.48-1.01-4.34-.77-10.45-1.9-14.1-.71-2.31-5.85-7.64-7.59-10.41-16.62-26.54-23.4-49.71-16.1-81.16.79-3.4,5.06-14.11,5.06-15.87,0-2.71-7.34-21.04-8.63-26.29-5.52-22.47-8.65-69.2,1.2-90.22,3.03-6.46,9.03-6.49,14.02-2,3.33,2.99,10.16,16.36,13.67,21.33,38.42,54.46,65.71,50.08,123.56,69.4,60.01,20.04,111.11,56.09,150.67,105.28l1.7-1.27c11.59-22.7,25.54-43.72,27.62-70.04-.81-3.39-36.92-19.71-42.77-24.25-9.28-7.2-3.59-9.68,4.67-13.2,7.8-3.32,31.89-7.83,35.98-10.5.69-.45,3.91-6.59,5.28-8.21,19.82-23.28,60.38-23.87,79.97-.04,14.59,17.74,10.36,40.9,12.99,62.01,2.9,23.31,13.81,45.59,25.49,65.53l2.5-1.5c36.07-41.39,76.12-74.89,127.67-95.28,53.07-20.99,109.53-22.62,144.44-74.5,4.8-7.13,13.07-27.14,21.52-28.56,5.49-.92,8.12,4.52,9.78,8.8,9.12,23.58,3.32,81.22-6.05,105.02-.82,2.08-4.49,7.54-4.5,8.54,0,.59,4.86,7.72,5.79,10.21,9.46,25.37-1.76,70.82-19.26,91.28-1.46,1.71-6.01,4.67-6.35,5.65-.74,2.19.1,5.97-.29,8.71-4.36,31.13-20.77,52.6-45.93,70.04-1.5,1.04-5.09,2.16-5.66,2.84ZM485.23,368.98c1.05,1.08,13.81,5.27,16.67,6.84,14.21,7.82,9.64,25.51,6.64,38.99-6.14,27.64-24.31,47.15-32.07,71.92-2.42,7.72-2.54,15.81-4.53,23.47s-6.22,19.41-15.66,13.26c-9.73-6.35.26-29.2-.54-38.43-34.36-39.33-71.03-74.36-119.78-95.2-43.99-18.81-97.25-22.13-133.64-54.31-10.29-9.1-18.26-20.4-27.48-30.51-1.3,19.81-.04,40.38,5.49,59.51,12.56,43.51,48.78,68.44,83.98,92.99-32.11-.83-55.65-15.44-75.94-39.03-1.17-1.36-4.7-7.17-5.04-7.47-.12-.1-2.1-.37-1.98.5.91,4.37-.87,9.07-.98,13.01-1.73,61.83,47.94,80.95,99.74,90.2,2.36.42,12.67.9,13.2,1.3,1.97,1.45-.6,1.73-1.4,2.09-10.75,4.81-28.41,7.53-40.12,6.95-14.95-.75-28.98-6.08-42.44-12.03,2.78,6.81,5.98,13.31,9.97,19.51,26.34,40.89,76.23,45.62,120.97,45.49-.53,1.5-3.82,2.49-5.32,3.16-20.3,9.07-44.43,11.11-66.16,6.85,13.77,22.48,42.07,32.45,67.87,29.86,34.83-3.5,69.53-49.75,102.61-14.41,11.99,12.81,20.53,29.47,32.45,42.54,5.99,6.57,25.99,22.08,28.05,28.94,1.86,6.22-3.75,12.88-7.57,17.51-20.37,24.67-54.57,47.59-80.68,66.27-.53.38-1.92.02-1.24,1.73,1.04,2.59,14.52,13.2,17.66,15.35,16.79,11.52,37.74,18.95,58.16,19.05,3.47-2.24,14.57-72.1,23.74-78.75,6.72-4.88,14.81-.04,14.3,8.23-.58,9.27-5.71,25.26-8.2,34.87-3.75,14.48-8.53,28.76-12.53,43.16,20,17.21,52.18,16.86,72.86.94-4.23-17.99-11.12-35.24-15.78-53.1-1.99-7.61-8.75-27.6-2.8-33.23,7.24-6.85,11.83-2.06,14.99,5.04,9.72,21.79,13.46,49.94,20.61,72.88,24.2-.33,45.66-8.97,64.35-23.92,1.6-1.28,11.31-9.75,11.49-10.54.33-1.46-.87-1.58-1.61-2.28-3.2-3.01-10.26-6.81-14.24-9.76-19.98-14.79-56.15-41.38-70.06-60.91-11.49-16.14.59-17.42,10.99-26.97,16.12-14.82,26.36-30.65,40-46.98,47.45-56.82,70.58,7.71,119.42,5.45,14.41-.67,44.35-11.99,53.46-23.51,1.47-1.86,3.33-3.91,3.03-6.46-22.48,4.3-46.1.63-66.92-8.56-1.23-.55-4.01-.96-4.05-2.44,41.26.12,88.16-5.78,116.46-39,5.94-6.97,12.87-16.49,12.47-26.01-21.24,10.59-44.57,15.75-68.15,10.69l-18.8-4.68c56.54-4.36,133.44-38.66,116.94-108l-6.46,12.02c-12.7,16.49-49.66,32.98-70.13,34.84-1.2.11-3.63.71-4.36-.36,31.63-20.73,64.87-46.72,78.73-83.24,8-21.07,10.28-43.81,10.22-66.26l-29.51,27.97c-37.98,32.67-89.6,35.32-134.1,54.85-41.69,18.3-76.82,48.4-107.31,81.65-1.95,2.13-10.96,12.01-11.48,13.6-2.08,6.39,13.15,35.34-4.06,37.89-13.31,1.97-11.08-13.21-12.7-21.19-5.51-27.21-23.68-49.83-31.43-77.56-6.34-22.68-4.6-39.66-7.54-61.46-3.55-26.28-45.54-35.76-57.2-8.75-.78,1.8-1.43,6.62-2.12,7.1-2.59,1.78-17.32,3.51-21.93,4.86-1.11.33-3.07.35-1.45,2.01Z"/>
</svg>